{"title":"Home.Sweet.Home.2013.WEBRip XViD juggs","uid":8509949,"size":743774208,"categoryP":"video","categoryS":"movies","magnet":"?xt=urn:btih:5877394a5d5ddc6a038948aab29a0ad410fb5578&amp;dn=Home.Sweet.Home.2013.WEBRip+XViD+juggs&amp;tr=udp%3A%2F%2Ftracker.openbittorrent.com%3A80&amp;tr=udp%3A%2F%2Fopen.demonii.com%3A1337&amp;tr=udp%3A%2F%2Ftracker.coppersurfer.tk%3A6969&amp;tr=udp%3A%2F%2Fexodus.desync.com%3A6969","seeders":1,"leechers":0,"uploader":"hungry4momoney","files":5,"time":1369544265,"description":"A young married couple comes home from a date night to discover that they are imprisoned in their own house with a methodical killer inside.\n\n\n\nFormat                                   : AVI\nFormat/Info                              : Audio Video Interleave\nFile size                                : 701 MiB\nDuration                                 : 1h 21mn\nOverall bit rate                         : 1 201 Kbps\nWriting library                          : VirtualDub build 32842/release\n\nVideo\nID                                       : 0\nFormat                                   : MPEG-4 Visual\nFormat profile                           : Advanced Simple@L5\nFormat settings, BVOP                    : 2\nFormat settings, QPel                    : No\nFormat settings, GMC                     : No warppoints\nFormat settings, Matrix                  : Default (H.263)\nMuxing mode                              : Packed bitstream\nCodec ID                                 : XVID\nCodec ID/Hint                            : XviD\nDuration                                 : 1h 21mn\nBit rate                                 : 1 063 Kbps\nWidth                                    : 640 pixels\nHeight                                   : 272 pixels\nDisplay aspect ratio                     : 2.35:1\nFrame rate                               : 23.976 fps\nColor space                              : YUV\nChroma subsampling                       : 4:2:0\nBit depth                                : 8 bits\nScan type                                : Progressive\nCompression mode                         : Lossy\nBits/(Pixel*Frame)                       : 0.255\nStream size                              : 620 MiB (89%)\nWriting library                          : XviD 1.2.0.dev47 (UTC 2006-11-01)\n\nAudio\nID                                       : 1\nFormat                                   : MPEG Audio\nFormat version                           : Version 1\nFormat profile                           : Layer 3\nCodec ID                                 : 55\nCodec ID/Hint                            : MP3\nDuration                                 : 1h 21mn\nBit rate mode                            : Constant\nBit rate                                 : 128 Kbps\nChannel(s)                               : 2 channels\nSampling rate                            : 44.1 KHz\nCompression mode                         : Lossy\nStream size                              : 74.7 MiB (11%)\nAlignment                                : Split accross interleaves\nInterleave, duration                     : 42 ms (1.00 video frame)\nInterleave, preload duration             : 500 ms\nWriting library                          : LAME3.99r\nEncoding settings                        : -m s -V 4 -q 3 -lowpass 17 -b 128","torrent":{"xt":"urn:btih:5877394a5d5ddc6a038948aab29a0ad410fb5578","amp;dn":"Home.Sweet.Home.2013.WEBRip+XViD+juggs","amp;tr":["udp%3A%2F%2Ftracker.openbittorrent.com%3A80","udp%3A%2F%2Fopen.demonii.com%3A1337","udp%3A%2F%2Ftracker.coppersurfer.tk%3A6969","udp%3A%2F%2Fexodus.desync.com%3A6969"],"infoHash":"5877394a5d5ddc6a038948aab29a0ad410fb5578","infoHashBuffer":{"type":"Buffer","data":[88,119,57,74,93,93,220,106,3,137,72,170,178,154,10,212,16,251,85,120]},"announce":[],"urlList":[]}}